<?xml version="1.0" standalone="no"?>
<!DOCTYPE svg PUBLIC "-//W3C//DTD SVG 20010904//EN"
 "http://www.w3.org/TR/2001/REC-SVG-20010904/DTD/svg10.dtd">
<svg version="1.0" xmlns="http://www.w3.org/2000/svg"
 width="917.000000pt" height="917.000000pt" viewBox="0 0 917.000000 917.000000"
 preserveAspectRatio="xMidYMid meet">
<metadata>
Created by potrace 1.14, written by Peter Selinger 2001-2017
</metadata>
<g transform="translate(0.000000,917.000000) scale(0.100000,-0.100000)"
fill="#000000" stroke="none">
<path d="M8556 5515 c4 -10 20 -15 48 -15 l42 0 -1 -534 c0 -294 -3 -537 -7
-541 -3 -4 -21 -7 -39 -8 -18 -1 -34 -8 -37 -15 -3 -10 43 -12 222 -10 144 2
225 7 224 13 -2 6 -20 10 -40 10 l-38 -1 0 558 0 558 -190 0 c-164 0 -189 -2
-184 -15z"/>
<path d="M3595 5492 c-84 -27 -116 -134 -65 -217 25 -40 58 -55 123 -55 67 0
117 25 139 70 36 71 12 161 -52 192 -35 18 -106 22 -145 10z"/>
<path d="M7430 5487 c-71 -33 -94 -112 -60 -202 15 -39 66 -65 128 -65 101 0
149 41 157 135 7 87 -53 146 -150 144 -27 0 -61 -6 -75 -12z"/>
<path d="M1675 5464 c-91 -22 -117 -31 -167 -57 -112 -58 -199 -172 -235 -308
-23 -88 -22 -291 1 -378 38 -139 113 -235 229 -289 137 -65 277 -73 462 -26
33 8 75 17 94 20 34 6 91 -11 91 -27 0 -5 7 -9 15 -9 13 0 15 31 15 215 l0
215 30 0 c20 0 30 5 30 15 0 8 -6 15 -12 16 -41 3 -405 4 -415 1 -7 -2 -13
-10 -13 -18 0 -10 14 -14 49 -14 l50 0 -1 -169 c-1 -220 -6 -232 -98 -245 -72
-9 -154 50 -190 138 -36 90 -47 188 -44 402 3 215 4 225 28 306 37 128 117
197 216 185 59 -7 96 -25 139 -69 36 -35 122 -161 147 -213 8 -18 21 -32 29
-32 13 0 14 24 9 161 -3 89 -8 165 -11 170 -3 5 -13 -1 -23 -13 l-16 -23 -90
22 c-85 21 -274 35 -319 24z"/>
<path d="M200 5439 c0 -12 8 -16 29 -14 16 1 34 -1 41 -5 9 -6 12 -97 13 -362
0 -246 4 -373 13 -417 36 -175 160 -257 401 -265 192 -6 310 48 362 165 33 73
39 162 39 527 0 189 3 346 7 350 4 4 21 7 38 7 22 0 32 5 32 15 0 12 -18 15
-95 15 -106 0 -120 -2 -120 -20 0 -8 16 -12 49 -11 l49 2 -2 -396 c-2 -425 -3
-436 -57 -516 -47 -68 -172 -105 -272 -79 -59 15 -99 52 -123 113 -17 43 -19
82 -19 462 l0 415 44 0 c27 0 46 5 48 13 6 15 28 14 -245 15 -208 2 -232 0
-232 -14z"/>
<path d="M2568 5449 c-21 -13 -6 -24 39 -29 l47 -5 1 -470 c0 -258 -2 -482 -3
-496 -3 -23 -8 -26 -43 -26 -43 0 -55 -6 -44 -22 4 -7 100 -11 291 -11 236 0
284 2 284 14 0 19 -14 22 -107 20 l-83 -1 0 233 0 234 58 -4 c102 -5 145 -42
178 -152 12 -38 24 -59 32 -56 16 5 18 452 2 452 -6 0 -12 -6 -14 -12 -39
-135 -105 -196 -208 -191 -51 2 -48 -14 -48 249 l0 246 73 -5 c89 -7 104 -10
155 -36 53 -27 94 -78 134 -168 58 -128 63 -100 44 212 l-2 29 -388 1 c-213 0
-392 -3 -398 -6z"/>
<path d="M4395 5114 c-45 -15 -81 -47 -106 -94 -20 -38 -20 -36 -21 47 0 23
-5 43 -12 45 -6 2 -87 4 -181 3 -144 0 -170 -2 -170 -15 0 -11 11 -15 40 -15
l39 0 1 -330 0 -330 -43 -3 c-28 -2 -42 -8 -42 -18 0 -12 34 -14 215 -14 188
0 215 2 215 16 0 11 -7 14 -30 10 l-30 -4 -1 91 c-3 400 0 433 44 498 40 59
94 70 119 25 9 -15 12 -110 13 -313 l1 -293 -34 0 c-22 0 -32 -4 -29 -12 5
-16 427 -19 427 -3 0 6 -18 10 -40 10 l-40 -1 -1 251 c-1 137 -3 262 -5 277
-5 49 -41 115 -76 141 -58 45 -173 59 -253 31z"/>
<path d="M5060 5119 c-144 -27 -220 -127 -177 -231 21 -49 56 -71 117 -71 83
0 148 62 135 128 -2 11 -4 28 -4 37 -1 9 -11 18 -23 20 -18 2 -24 11 -26 36
-4 40 9 59 48 67 37 8 67 -11 81 -53 13 -40 20 -290 8 -298 -4 -2 -48 -7 -96
-9 -202 -11 -280 -56 -288 -168 -11 -133 67 -201 226 -199 76 0 120 19 146 60
9 15 18 29 19 30 1 2 20 -14 42 -36 29 -29 51 -41 88 -48 103 -21 205 1 237
49 34 53 56 177 31 177 -9 0 -14 -10 -14 -27 0 -40 -18 -100 -35 -117 -11 -11
-45 -12 -57 -2 0 0 -4 111 -7 246 -7 276 -15 312 -84 364 -60 46 -241 68 -367
45z m165 -503 c-3 -122 -22 -176 -61 -176 -16 0 -27 8 -33 23 -8 19 -9 106 -3
185 3 31 46 72 76 72 l25 0 -4 -104z"/>
<path d="M6135 5114 c-48 -18 -81 -47 -106 -96 -11 -21 -20 -38 -22 -38 -1 0
-1 28 0 62 1 34 -2 65 -6 68 -5 3 -87 5 -183 5 -144 0 -173 -3 -173 -15 0 -10
11 -14 35 -14 19 0 37 -3 40 -7 3 -4 5 -153 5 -331 l0 -323 -39 -5 c-22 -3
-41 -11 -44 -17 -3 -10 44 -13 212 -13 185 0 216 2 216 15 0 10 -10 15 -32 15
l-33 0 2 217 c1 120 4 237 7 261 15 109 98 190 147 141 22 -22 21 -3 23 -346
l1 -273 -26 0 c-15 0 -29 -7 -33 -15 -5 -13 22 -15 208 -15 182 0 215 2 220
15 4 12 -1 15 -29 12 -18 -2 -38 -1 -44 2 -7 5 -11 96 -11 259 -1 274 -9 325
-55 380 -14 16 -42 38 -62 47 -49 23 -165 28 -218 9z"/>
<path d="M6844 5115 c-135 -31 -231 -120 -265 -245 -15 -57 -14 -192 1 -251
44 -163 160 -242 355 -242 106 0 178 25 234 81 51 52 92 145 73 164 -8 8 -13
6 -18 -8 -34 -102 -92 -168 -157 -180 -96 -17 -148 5 -180 74 -19 41 -22 68
-24 222 -1 96 3 198 8 225 6 28 11 56 12 64 0 7 15 28 32 47 25 26 41 34 66
34 42 0 55 -8 67 -41 11 -27 5 -78 -9 -80 -5 -1 -13 -3 -19 -4 -5 -1 -14 -3
-20 -4 -15 -2 -12 -88 5 -120 33 -64 151 -76 206 -21 34 33 47 104 30 160 -14
48 -75 102 -133 120 -57 17 -201 20 -264 5z"/>
<path d="M7975 5115 c-125 -29 -175 -83 -171 -183 1 -38 7 -57 25 -76 24 -25
63 -43 91 -40 8 1 27 2 43 3 35 1 96 58 98 91 5 60 -1 80 -25 89 -13 5 -25 18
-28 28 -14 52 41 94 93 73 26 -11 34 -27 45 -87 4 -21 8 -234 5 -258 0 -6 -33
-10 -74 -10 -39 0 -99 -5 -132 -11 -133 -25 -177 -65 -181 -168 -6 -123 67
-188 209 -189 88 -1 141 22 168 72 l18 34 11 -24 c25 -54 116 -89 218 -83 71
4 114 27 140 72 20 37 44 146 34 157 -14 13 -20 1 -27 -50 -4 -37 -15 -65 -30
-83 l-24 -27 -21 21 c-20 20 -21 32 -25 250 -2 126 -8 244 -13 261 -22 69 -66
109 -146 135 -46 15 -244 17 -301 3z m179 -479 c1 -98 -15 -164 -45 -189 -23
-18 -24 -18 -41 3 -14 17 -18 40 -18 101 0 114 30 173 84 166 18 -2 20 -11 20
-81z"/>
<path d="M3431 5112 c-6 -2 -7 -10 -5 -17 4 -10 18 -13 45 -10 26 3 39 0 40
-8 0 -7 1 -157 2 -335 l2 -322 -35 -1 c-19 -1 -38 -1 -42 0 -5 0 -8 -6 -8 -14
0 -13 32 -15 225 -15 200 0 225 2 225 16 0 13 -8 15 -40 12 -22 -2 -40 -1 -41
2 0 3 -2 158 -3 345 -2 187 -4 342 -4 345 -2 5 -346 7 -361 2z"/>
<path d="M7274 5111 c-2 -2 -4 -10 -4 -17 0 -8 14 -11 45 -9 l45 2 0 -333 0
-334 -34 0 c-18 0 -39 -7 -46 -15 -11 -13 14 -15 219 -15 202 0 231 2 231 15
0 9 -6 15 -12 14 -7 -1 -27 -1 -43 0 l-31 1 1 345 c0 338 0 345 -20 346 -63 4
-347 3 -351 0z"/>
<path d="M4666 4049 c-43 -12 -64 -41 -72 -98 -6 -44 -9 -50 -33 -53 -37 -4
-36 -42 2 -46 l27 -3 0 -155 0 -154 30 0 c17 0 30 6 31 13 1 6 2 73 3 147 0
74 4 140 8 146 4 6 21 9 38 6 27 -4 30 -2 30 22 0 24 -4 26 -39 26 l-39 0 4
38 c6 46 23 64 63 66 28 1 31 4 29 26 -3 27 -30 34 -82 19z"/>
<path d="M4904 4049 c-45 -13 -66 -42 -72 -99 -4 -46 -7 -50 -31 -50 -21 0
-27 -5 -29 -25 -1 -22 2 -25 28 -25 l30 0 0 -155 0 -155 30 0 30 0 0 155 0
155 24 0 c37 0 56 10 56 31 0 15 -7 19 -40 19 -39 0 -40 1 -40 33 0 41 27 69
70 71 27 1 30 4 28 26 -3 28 -30 34 -84 19z"/>
<path d="M5384 3795 l0 -255 31 0 31 0 -1 123 c-1 135 9 170 54 185 41 14 88
-4 98 -36 5 -15 9 -82 8 -149 l0 -123 32 0 32 0 -3 143 c-2 86 -8 152 -16 168
-24 51 -94 67 -160 38 -23 -10 -43 -19 -44 -19 -1 0 -1 41 0 90 l1 90 -31 0
-32 0 0 -255z"/>
<path d="M8029 4043 c-3 -26 -4 -480 -1 -490 2 -7 17 -13 33 -13 l29 0 0 255
0 255 -30 0 c-16 0 -30 -3 -31 -7z"/>
<path d="M2574 4019 c-3 -5 31 -74 75 -154 l81 -146 0 -90 0 -90 32 3 32 3 1
90 0 90 78 140 c42 76 77 145 77 152 0 9 -9 12 -32 8 -18 -4 -33 -7 -34 -8 0
-1 -27 -53 -60 -114 -32 -62 -61 -113 -64 -113 -3 0 -30 50 -60 111 -30 61
-59 113 -65 117 -15 10 -55 10 -61 1z"/>
<path d="M8886 3983 c-3 -4 -6 -23 -6 -44 0 -35 -2 -38 -32 -41 -24 -2 -32 -8
-33 -26 -1 -12 3 -22 9 -21 56 7 56 7 56 -115 0 -62 3 -127 6 -143 8 -43 48
-62 112 -54 6 0 12 11 12 24 0 17 -6 23 -27 25 -14 1 -29 5 -32 8 -3 3 -6 62
-7 130 l-1 124 26 1 c14 1 29 1 34 0 4 0 7 10 7 24 0 22 -4 25 -34 25 -34 0
-34 1 -33 42 1 39 -1 43 -25 45 -14 1 -29 -1 -32 -4z"/>
<path d="M3104 3894 c-138 -47 -147 -284 -12 -344 46 -20 101 -19 145 3 38 20
51 36 72 92 22 57 12 151 -19 193 -43 57 -117 80 -186 56z m96 -49 c49 -15 75
-129 47 -198 -25 -58 -100 -82 -144 -46 -46 39 -58 149 -23 207 28 46 60 56
120 37z"/>
<path d="M3893 3903 c-12 -2 -27 -11 -33 -19 -15 -17 -31 -18 -27 -1 1 7 -11
13 -29 15 l-30 3 0 -180 0 -181 31 0 31 0 0 127 c-1 114 1 130 19 151 13 15
34 25 55 27 28 2 36 7 38 25 3 20 -13 42 -28 38 -3 0 -15 -3 -27 -5z"/>
<path d="M4267 3895 c-70 -24 -107 -86 -107 -178 0 -112 70 -186 171 -181 88
4 147 70 153 168 8 140 -98 233 -217 191z m100 -54 c78 -41 68 -221 -14 -252
-69 -26 -124 26 -129 121 -6 112 63 175 143 131z"/>
<path d="M5120 3900 c-19 -5 -47 -22 -62 -39 -57 -64 -24 -127 81 -157 31 -9
66 -22 79 -30 25 -17 29 -55 7 -74 -36 -30 -127 -11 -140 30 -5 14 -15 20 -37
20 -28 0 -30 -2 -23 -27 9 -38 23 -53 69 -74 43 -19 110 -18 154 3 40 19 65
76 51 116 -13 38 -35 52 -126 81 -79 25 -98 48 -68 81 36 39 105 32 126 -14 8
-17 19 -23 40 -22 16 0 29 5 29 11 -1 68 -90 115 -180 95z"/>
<path d="M5859 3898 c-45 -12 -86 -53 -104 -104 -16 -48 -12 -131 9 -172 20
-39 72 -82 99 -83 12 0 30 -2 40 -4 30 -6 84 14 112 42 85 86 68 258 -31 311
-30 16 -86 20 -125 10z m102 -63 c46 -29 60 -132 27 -198 -21 -41 -26 -45 -78
-51 -28 -3 -40 2 -67 29 -22 22 -33 43 -34 64 -1 17 -2 37 -2 44 -2 33 16 86
36 104 34 32 75 35 118 8z"/>
<path d="M6260 3898 c-14 -5 -31 -16 -37 -25 -12 -15 -13 -15 -13 5 0 18 -6
22 -30 22 -22 0 -30 -5 -31 -17 -3 -59 -4 -320 -1 -330 2 -7 17 -13 33 -13
l29 0 0 133 c0 152 8 169 76 171 32 1 35 3 32 30 -3 32 -19 39 -58 24z"/>
<path d="M6476 3900 c-137 -41 -155 -283 -26 -349 63 -32 174 -10 200 39 17
31 -17 43 -51 18 -59 -44 -137 -23 -164 44 -8 21 -15 40 -15 43 0 2 55 6 123
7 l122 3 -3 50 c-6 106 -91 173 -186 145z m72 -51 c31 -11 59 -57 49 -83 -8
-19 -167 -19 -167 0 0 40 29 72 86 94 1 0 15 -5 32 -11z"/>
<path d="M6995 3898 c-35 -10 -55 -24 -78 -58 -24 -35 -22 -40 18 -40 25 0 35
4 35 16 0 22 61 45 96 35 29 -7 54 -41 54 -72 0 -13 -15 -17 -70 -22 -104 -9
-150 -43 -152 -113 -2 -78 73 -126 162 -101 19 5 38 14 43 21 5 8 11 6 18 -6
6 -10 22 -18 37 -18 l28 0 -4 138 c-2 75 -9 148 -15 161 -26 53 -101 79 -172
59z m123 -221 c3 -29 -2 -42 -23 -61 -35 -32 -80 -38 -111 -14 -46 37 -23 96
42 107 76 12 88 8 92 -32z"/>
<path d="M7393 3895 c-17 -7 -34 -18 -37 -24 -10 -16 -26 -3 -19 15 5 12 -1
15 -28 12 l-34 -3 0 -175 0 -175 33 -3 32 -3 0 134 c0 128 1 134 24 156 18 17
33 22 67 19 60 -4 66 -20 65 -178 l-1 -130 33 0 32 0 0 135 c0 146 -11 194
-50 215 -32 17 -83 19 -117 5z"/>
<path d="M7735 3895 c-42 -15 -85 -56 -85 -81 0 -23 49 -17 73 11 26 28 71 39
101 23 28 -15 36 -28 36 -60 0 -26 -3 -28 -37 -29 -84 -1 -135 -20 -163 -59
-23 -32 -25 -54 -9 -98 21 -62 106 -87 175 -51 46 23 44 23 44 4 0 -11 11 -15
36 -15 23 0 33 4 28 11 -3 6 -7 70 -8 142 -2 80 -7 141 -15 154 -25 47 -111
70 -176 48z m124 -193 c13 -21 0 -69 -23 -91 -62 -59 -170 4 -118 68 26 34
124 50 141 23z"/>
<path d="M8584 3894 c-105 -36 -102 -151 4 -182 20 -6 54 -16 75 -23 64 -19
73 -78 15 -98 -49 -17 -118 10 -118 46 0 8 -12 13 -36 13 -32 0 -35 -2 -29
-22 11 -35 55 -77 91 -87 72 -20 161 8 183 56 33 73 -8 124 -124 152 -60 15
-75 26 -75 56 0 60 112 68 138 10 9 -18 17 -23 39 -21 15 2 29 4 30 5 1 0 -3
15 -9 31 -21 61 -107 90 -184 64z"/>
<path d="M3399 3883 c-5 -78 2 -263 10 -285 15 -41 57 -63 114 -61 26 1 59 9
73 17 21 15 24 15 24 1 0 -10 10 -15 30 -15 34 0 31 -16 31 190 0 184 3 170
-31 170 -34 0 -33 6 -30 -166 1 -83 -1 -95 -22 -119 -18 -21 -33 -27 -63 -27
-66 0 -75 20 -75 178 l0 134 -30 0 c-21 0 -30 -5 -31 -17z"/>
<path d="M8156 3878 c3 -13 31 -90 61 -173 41 -115 53 -158 48 -183 -8 -41
-37 -72 -70 -72 -20 0 -25 -5 -25 -24 0 -13 6 -26 14 -29 28 -11 81 13 102 45
16 26 164 435 164 454 0 3 -14 4 -32 2 -31 -3 -32 -4 -73 -133 l-41 -130 -44
133 -44 132 -34 0 c-30 0 -33 -2 -26 -22z"/>
<path d="M170 3766 l0 -21 1082 0 c1076 0 1083 0 1083 20 0 20 -7 20 -1082 21
l-1083 2 0 -22z"/>
</g>
</svg>
